<svg width="16" height="4" viewBox="0 0 16 4" fill="none" xmlns="http://www.w3.org/2000/svg">
<g clip-path="url(#clip0)">
<path fill-rule="evenodd" clip-rule="evenodd" d="M7.04669 2.62815C7.13307 2.38229 7.17547 2.12293 7.17194 1.86215C7.17534 1.60221 7.13294 1.34373 7.04669 1.09873C6.96975 0.880579 6.84979 0.680362 6.69405 0.510132C6.54114 0.346307 6.35506 0.217539 6.14842 0.13256C5.92551 0.0421206 5.68701 -0.00288345 5.44673 0.000152279C5.20679 -0.00299136 4.96867 0.042567 4.74658 0.134113C4.54074 0.219795 4.35515 0.348278 4.20196 0.511166C4.04613 0.680928 3.92616 0.88083 3.84932 1.09873C3.76309 1.34373 3.72068 1.60221 3.72408 1.86215C3.72055 2.12293 3.76296 2.38229 3.84932 2.62815C3.92616 2.84605 4.04613 3.04595 4.20196 3.21571C4.35493 3.37861 4.54059 3.50679 4.74658 3.59173C5.19744 3.76827 5.69755 3.76827 6.14842 3.59173C6.35477 3.50694 6.5408 3.37874 6.69405 3.21571C6.84989 3.04595 6.96987 2.84605 7.04669 2.62815ZM6.79679 1.17684C6.86875 1.3979 6.90344 1.62954 6.89946 1.86216C6.90369 2.09513 6.86899 2.32714 6.79679 2.54851C6.73364 2.73839 6.63248 2.91319 6.49959 3.06211C6.37164 3.20319 6.21372 3.31334 6.03762 3.38434C5.65759 3.53128 5.23704 3.53128 4.85702 3.38434C4.68115 3.31291 4.52332 3.20282 4.39504 3.06211C4.26152 2.91331 4.15967 2.73851 4.09578 2.54851C4.02229 2.32739 3.98653 2.09532 3.99004 1.86216C3.98722 1.63018 4.02314 1.39939 4.0963 1.17942C4.15974 0.988143 4.26161 0.812073 4.39555 0.662204C4.52406 0.521508 4.68181 0.411128 4.85753 0.338941C5.23718 0.189963 5.65848 0.189963 6.03813 0.338941C6.21409 0.410686 6.37192 0.52113 6.50011 0.662204C6.63293 0.811465 6.73391 0.986629 6.79679 1.17684Z" fill="white"/>
<path fill-rule="evenodd" clip-rule="evenodd" d="M9.84777 3.72404H10.0692L8.83207 2.11235C8.80206 2.0712 8.76495 2.03613 8.72258 2.00891C8.86917 1.9927 9.01283 1.95472 9.14896 1.89616C9.26831 1.84436 9.37771 1.77078 9.4719 1.67892C9.56003 1.59125 9.62965 1.48557 9.67626 1.36858C9.72504 1.245 9.74935 1.11257 9.74779 0.979114C9.74675 0.658085 9.64314 0.414644 9.43687 0.248786C9.2306 0.0829288 8.92072 0 8.50715 0H7.58643V3.72404H7.84835V2.03995H8.32021C8.35046 2.03966 8.38069 2.04156 8.41068 2.04563C8.43255 2.04797 8.45396 2.05373 8.47416 2.0627C8.49262 2.0703 8.50956 2.08135 8.52415 2.09529C8.53959 2.11122 8.55363 2.12853 8.56613 2.14701L9.72081 3.65783C9.7343 3.67971 9.75307 3.69754 9.77529 3.70955C9.79804 3.71995 9.82286 3.7249 9.84777 3.72404ZM8.89797 1.78033C8.75881 1.82192 8.61447 1.84195 8.46962 1.83981H7.84831V0.213132H8.50761C8.82714 0.213477 9.07025 0.277614 9.23691 0.405541C9.40349 0.533469 9.48686 0.729842 9.48686 0.994664C9.48859 1.11512 9.46524 1.23457 9.41836 1.34482C9.37252 1.4483 9.30411 1.53933 9.2184 1.61068C9.12353 1.68861 9.01456 1.74628 8.89797 1.78033Z" fill="white"/>
<path d="M11.8619 3.4869C12.0236 3.48989 12.184 3.45854 12.3328 3.39491C12.4667 3.3362 12.5865 3.24893 12.6839 3.13909C12.7821 3.02653 12.8569 2.89526 12.9039 2.75303C12.9551 2.59867 12.9804 2.43674 12.9787 2.27395V0H13.2412V2.27395C13.2429 2.46763 13.2107 2.66008 13.146 2.84244C13.0858 3.01267 12.9926 3.16904 12.8717 3.3024C12.7502 3.43568 12.6022 3.54138 12.4372 3.61248C12.0679 3.76135 11.656 3.76135 11.2867 3.61248C11.1217 3.54152 10.9735 3.43581 10.8522 3.3024C10.7312 3.16918 10.6379 3.01277 10.5779 2.84244C10.5133 2.66008 10.481 2.46763 10.4827 2.27395V0H10.7463V2.27085C10.7448 2.43387 10.7704 2.59599 10.822 2.75045C10.8692 2.89245 10.9436 3.02365 11.0411 3.1365C11.1376 3.24726 11.2569 3.33544 11.3906 3.39491C11.5394 3.4591 11.7001 3.49046 11.8619 3.4869Z" fill="white"/>
<path d="M15.8387 0.483699C15.8275 0.510404 15.8016 0.527709 15.773 0.527657C15.7401 0.522102 15.7101 0.505316 15.688 0.480079C15.6437 0.442047 15.5967 0.407472 15.5473 0.376649C15.4776 0.332569 15.4031 0.296822 15.3253 0.270116C15.1063 0.201538 14.8719 0.203344 14.654 0.275287C14.5616 0.309203 14.477 0.362006 14.4054 0.430432C14.3393 0.494143 14.2872 0.571338 14.2526 0.656944C14.2184 0.742666 14.2011 0.83439 14.2017 0.926893C14.1974 1.03438 14.2241 1.1408 14.2786 1.23305C14.3317 1.31561 14.401 1.38605 14.4823 1.4399C14.5723 1.49901 14.6689 1.54693 14.7701 1.58264C14.8771 1.62091 14.9876 1.65918 15.1006 1.69693C15.2138 1.73469 15.3243 1.77657 15.4313 1.82156C15.5345 1.8648 15.6314 1.9224 15.719 1.99274C15.8035 2.0619 15.873 2.1482 15.9228 2.24614C15.9776 2.36288 16.004 2.49129 15.9997 2.62056C16.0009 2.7677 15.9753 2.9138 15.9237 3.05135C15.8739 3.18307 15.7974 3.30269 15.6991 3.40249C15.5964 3.50504 15.474 3.58512 15.3395 3.63779C15.1841 3.69757 15.0188 3.7267 14.8526 3.72364C14.642 3.72933 14.4329 3.68581 14.2414 3.59642C14.0707 3.51126 13.9184 3.39262 13.7932 3.24734L13.864 3.13461C13.8802 3.11098 13.9065 3.09659 13.9348 3.09582C13.9572 3.09927 13.9778 3.11018 13.9933 3.12685L14.0795 3.20235C14.113 3.23286 14.1538 3.26544 14.2012 3.30061C14.2528 3.33854 14.3079 3.37128 14.3657 3.39835C14.5199 3.47059 14.6879 3.50698 14.8577 3.50488C14.9874 3.50715 15.1165 3.48488 15.2382 3.4392C15.3432 3.39889 15.439 3.33731 15.5198 3.25821C15.5967 3.18241 15.6566 3.09069 15.6956 2.98928C15.7368 2.88328 15.7575 2.77021 15.7567 2.65624C15.761 2.54493 15.7341 2.43465 15.6793 2.3382C15.6269 2.25507 15.5574 2.18449 15.4755 2.13134C15.3857 2.07309 15.2893 2.02604 15.1882 1.99119C15.0808 1.95344 14.9708 1.91672 14.8572 1.88052C14.7436 1.84432 14.6341 1.8045 14.5266 1.75951C14.423 1.71726 14.3261 1.65975 14.2389 1.58884C14.1536 1.51839 14.0842 1.43023 14.0351 1.33027C13.9796 1.20826 13.953 1.07468 13.9577 0.940342C13.9577 0.81939 13.9809 0.699593 14.0259 0.587645C14.0716 0.474893 14.1398 0.372949 14.2262 0.288216C14.3203 0.19811 14.431 0.127808 14.5521 0.0813566C14.6932 0.0258809 14.8434 -0.00167856 14.9947 0.000164226C15.1658 -0.00253276 15.3357 0.0280107 15.4954 0.0901483C15.6472 0.15291 15.7847 0.246737 15.8993 0.365789L15.8387 0.483699Z" fill="white"/>
<path d="M2.06896 0H0V1.10345H2.06896V0Z" fill="white"/>
<path d="M2.06878 0H0.965332V3.72413H2.06878V0Z" fill="white"/>
<path d="M2.89645 1.10345C3.20116 1.10345 3.44817 0.856432 3.44817 0.551723C3.44817 0.247015 3.20116 0 2.89645 0C2.59174 0 2.34473 0.247015 2.34473 0.551723C2.34473 0.856432 2.59174 1.10345 2.89645 1.10345Z" fill="white"/>
</g>
<defs>
<clipPath id="clip0">
<rect width="16" height="3.80541" fill="white"/>
</clipPath>
</defs>
</svg>
